<?xml version="1.0" standalone="no"?>
<!DOCTYPE svg PUBLIC "-//W3C//DTD SVG 20010904//EN"
 "http://www.w3.org/TR/2001/REC-SVG-20010904/DTD/svg10.dtd">
<svg version="1.0" xmlns="http://www.w3.org/2000/svg"
 width="260" height="260" viewBox="0 0 260 260"
 preserveAspectRatio="xMidYMid meet">

<g transform="translate(0.000000,260) scale(0.100000,-0.100000)"
fill="#000000" stroke="none">
<path d="M1224 2258 c-23 -11 -44 -48 -44 -76 1 -24 29 -56 70 -81 41 -25 50
-26 50 -7 0 7 13 19 29 26 60 24 63 112 5 139 -30 13 -81 13 -110 -1z m126
-40 c13 -25 13 -31 0 -55 -9 -16 -26 -29 -40 -32 -14 -1 -28 -8 -32 -14 -10
-16 -61 23 -72 56 -7 19 -5 32 8 52 15 23 22 26 69 23 44 -3 53 -7 67 -30z"/>
<path d="M285 1981 c-44 -19 -59 -49 -60 -120 l-1 -67 68 1 c60 1 71 4 95 28
37 37 38 96 3 132 -28 27 -75 39 -105 26z m90 -36 c33 -32 32 -74 -1 -110 -23
-25 -29 -27 -72 -20 -26 4 -48 8 -49 8 0 1 -4 22 -8 47 -6 40 -3 49 19 73 33
35 78 36 111 2z"/>
<path d="M2225 1981 c-44 -19 -59 -49 -60 -120 l-1 -67 68 1 c60 1 71 4 95 28
37 37 38 96 3 132 -28 27 -75 39 -105 26z m90 -36 c33 -32 32 -74 -1 -110 -23
-25 -29 -27 -72 -20 -26 4 -48 8 -49 8 0 1 -4 22 -8 47 -6 40 -3 49 19 73 33
35 78 36 111 2z"/>
<path d="M1690 1514 l0 -95 22 15 c16 11 46 16 100 16 l78 0 0 80 0 80 -100 0
-100 0 0 -96z m180 17 l0 -59 -80 -4 -80 -3 0 63 0 62 80 0 80 0 0 -59z"/>
<path d="M1740 1530 c0 -5 5 -10 10 -10 6 0 10 5 10 10 0 6 -4 10 -10 10 -5 0
-10 -4 -10 -10z"/>
<path d="M1780 1530 c0 -5 5 -10 10 -10 6 0 10 5 10 10 0 6 -4 10 -10 10 -5 0
-10 -4 -10 -10z"/>
<path d="M1820 1530 c0 -5 5 -10 10 -10 6 0 10 5 10 10 0 6 -4 10 -10 10 -5 0
-10 -4 -10 -10z"/>
<path d="M650 1570 c-15 -15 -20 -33 -20 -70 0 -75 19 -90 120 -90 l80 0 0 70
c0 93 -16 110 -100 110 -47 0 -64 -4 -80 -20z m148 -12 c7 -7 12 -38 12 -70
l0 -58 -68 0 c-40 0 -73 5 -80 12 -16 16 -16 100 0 116 7 7 37 12 68 12 31 0
61 -5 68 -12z"/>
<path d="M690 1500 c0 -5 5 -10 10 -10 6 0 10 5 10 10 0 6 -4 10 -10 10 -5 0
-10 -4 -10 -10z"/>
<path d="M750 1500 c0 -5 5 -10 10 -10 6 0 10 5 10 10 0 6 -4 10 -10 10 -5 0
-10 -4 -10 -10z"/>
<path d="M1180 984 l0 -95 22 15 c16 11 46 16 100 16 l78 0 0 80 0 80 -100 0
-100 0 0 -96z m180 17 l0 -59 -80 -4 -80 -3 0 63 0 62 80 0 80 0 0 -59z"/>
<path d="M1230 1000 c0 -5 5 -10 10 -10 6 0 10 5 10 10 0 6 -4 10 -10 10 -5 0
-10 -4 -10 -10z"/>
<path d="M1270 1000 c0 -5 5 -10 10 -10 6 0 10 5 10 10 0 6 -4 10 -10 10 -5 0
-10 -4 -10 -10z"/>
<path d="M1310 1000 c0 -5 5 -10 10 -10 6 0 10 5 10 10 0 6 -4 10 -10 10 -5 0
-10 -4 -10 -10z"/>
<path d="M2225 1071 c-44 -19 -59 -49 -60 -120 l-1 -67 68 1 c60 1 71 4 95 28
37 37 38 96 3 132 -28 27 -75 39 -105 26z m90 -36 c33 -32 32 -74 -1 -110 -23
-25 -29 -27 -72 -20 -26 4 -48 8 -49 8 0 1 -4 22 -8 47 -6 40 -3 49 19 73 33
35 78 36 111 2z"/>
<path d="M264 968 c-23 -11 -44 -48 -44 -76 1 -24 29 -56 70 -81 41 -25 50
-26 50 -7 0 7 13 19 29 26 60 24 63 112 5 139 -30 13 -81 13 -110 -1z m126
-40 c13 -25 13 -31 0 -55 -9 -16 -26 -29 -40 -32 -14 -1 -28 -8 -32 -14 -10
-16 -61 23 -72 56 -7 19 -5 32 8 52 15 23 22 26 69 23 44 -3 53 -7 67 -30z"/>
<path d="M650 550 c-15 -15 -20 -33 -20 -70 0 -75 19 -90 120 -90 l80 0 0 70
c0 93 -16 110 -100 110 -47 0 -64 -4 -80 -20z m148 -12 c7 -7 12 -38 12 -70
l0 -58 -68 0 c-40 0 -73 5 -80 12 -16 16 -16 100 0 116 7 7 37 12 68 12 31 0
61 -5 68 -12z"/>
<path d="M690 480 c0 -5 5 -10 10 -10 6 0 10 5 10 10 0 6 -4 10 -10 10 -5 0
-10 -4 -10 -10z"/>
<path d="M750 480 c0 -5 5 -10 10 -10 6 0 10 5 10 10 0 6 -4 10 -10 10 -5 0
-10 -4 -10 -10z"/>
<path d="M1834 558 c-23 -11 -44 -48 -44 -76 1 -24 29 -56 70 -81 41 -25 50
-26 50 -7 0 7 13 19 29 26 60 24 63 112 5 139 -30 13 -81 13 -110 -1z m126
-40 c13 -25 13 -31 0 -55 -9 -16 -26 -29 -40 -32 -14 -1 -28 -8 -32 -14 -10
-16 -61 23 -72 56 -7 19 -5 32 8 52 15 23 22 26 69 23 44 -3 53 -7 67 -30z"/>
</g>
</svg>
