<?xml version="1.0" encoding="UTF-8"?>
<!DOCTYPE svg PUBLIC "-//W3C//DTD SVG 1.1//EN" "http://www.w3.org/Graphics/SVG/1.1/DTD/svg11.dtd">
<svg xmlns="http://www.w3.org/2000/svg" version="1.1" width="15px" height="15px" style="shape-rendering:geometricPrecision; text-rendering:geometricPrecision; image-rendering:optimizeQuality; fill-rule:evenodd; clip-rule:evenodd" xmlns:xlink="http://www.w3.org/1999/xlink">
<g><path style="opacity:0.783" fill="#ededf0" d="M 104.5,-0.5 C 106.833,-0.5 109.167,-0.5 111.5,-0.5C 110.866,0.94678 109.699,1.61345 108,1.5C 106.301,1.61345 105.134,0.94678 104.5,-0.5 Z"/></g>
<g><path style="opacity:0.275" fill="#e6e6e8" d="M 149.5,-0.5 C 150.167,-0.5 150.833,-0.5 151.5,-0.5C 151.5,0.5 151.5,1.5 151.5,2.5C 150.094,2.02694 149.427,1.02694 149.5,-0.5 Z"/></g>
<g><path style="opacity:0.915" fill="#f0f0f0" d="M 141.5,15.5 C 141.217,14.7109 140.717,14.0442 140,13.5C 138.53,15.6312 137.03,17.6312 135.5,19.5C 135.265,18.9033 134.765,18.5699 134,18.5C 132.594,19.4138 131.094,20.0805 129.5,20.5C 132.135,18.1743 134.802,15.841 137.5,13.5C 119.509,12.3337 101.509,12.167 83.5,13C 84.3805,13.7083 85.0472,14.5416 85.5,15.5C 83.5956,15.2624 82.2623,14.2624 81.5,12.5C 80.8333,11.8333 80.1667,11.1667 79.5,10.5C 98.8899,10.6406 118.557,10.3072 138.5,9.5C 139.772,9.56983 140.938,9.90316 142,10.5C 142.78,12.3869 142.613,14.0536 141.5,15.5 Z"/></g>
<g><path style="opacity:0.999" fill="#fafafa" d="M 129.5,20.5 C 123.178,24.4832 116.844,28.4832 110.5,32.5C 105.227,29.8805 100.227,26.8805 95.5,23.5C 93.2048,22.5254 91.2048,21.1921 89.5,19.5C 88.1667,18.1667 86.8333,16.8333 85.5,15.5C 85.0472,14.5416 84.3805,13.7083 83.5,13C 101.509,12.167 119.509,12.3337 137.5,13.5C 134.802,15.841 132.135,18.1743 129.5,20.5 Z"/></g>
<g><path style="opacity:0.851" fill="#fdfdfd" d="M 9.5,13.5 C 16.4933,11.9959 19.3267,14.6625 18,21.5C 14.0535,26.1764 10.0535,26.5098 6,22.5C 5.69908,18.8988 6.86574,15.8988 9.5,13.5 Z"/></g>
<g><path style="opacity:0.901" fill="#fcfcfd" d="M 61.5,12.5 C 69.7328,11.5528 72.5662,14.8861 70,22.5C 64.8147,26.442 60.9813,25.2754 58.5,19C 59.0304,16.5568 60.0304,14.3901 61.5,12.5 Z"/></g>
<g><path style="opacity:0.943" fill="#fdfdfd" d="M 141.5,15.5 C 142.808,34.3461 142.808,53.0128 141.5,71.5C 139.194,68.5271 136.527,65.8605 133.5,63.5C 129.592,56.6858 125.925,49.6858 122.5,42.5C 127.094,34.9782 131.427,27.3115 135.5,19.5C 137.03,17.6312 138.53,15.6312 140,13.5C 140.717,14.0442 141.217,14.7109 141.5,15.5 Z"/></g>
<g><path style="opacity:0.998" fill="#fcfcfc" d="M 64.5,40.5 C 64.6309,41.3764 64.2975,42.0431 63.5,42.5C 55.222,41.5301 46.8886,41.1968 38.5,41.5C 37.8823,36.2555 37.2157,31.5888 36.5,27.5C 35.5151,31.6344 35.1818,35.9677 35.5,40.5C 33.1432,40.6633 30.8098,40.4966 28.5,40C 29.624,39.7508 30.624,39.2508 31.5,38.5C 28.6336,37.792 25.8003,37.1253 23,36.5C 22.3333,37.1667 21.6667,37.8333 21,38.5C 19.2041,37.233 17.3707,37.233 15.5,38.5C 14.7025,38.0431 14.3691,37.3764 14.5,36.5C 21.3285,29.5041 27.9951,22.3374 34.5,15C 35.6086,14.3623 36.7753,13.8623 38,13.5C 46.9686,22.3025 55.8019,31.3025 64.5,40.5 Z"/></g>
<g><path style="opacity:1" fill="#dadbde" d="M 81.5,12.5 C 82.2623,14.2624 83.5956,15.2624 85.5,15.5C 86.8333,16.8333 88.1667,18.1667 89.5,19.5C 87.7748,19.8425 87.2748,20.8425 88,22.5C 92.1825,29.3435 96.3491,36.1768 100.5,43C 95.7767,49.6196 91.4434,56.453 87.5,63.5C 85.993,65.6332 84.6597,67.9666 83.5,70.5C 82.2794,71.0283 81.1127,71.695 80,72.5C 79.8333,62.5 79.6667,52.5 79.5,42.5C 79.5014,32.1436 80.1681,22.1436 81.5,12.5 Z"/></g>
<g><path style="opacity:0.755" fill="#ededed" d="M 129.5,20.5 C 123.665,26.3377 117.165,31.3377 110,35.5C 104.685,32.0129 99.852,28.0129 95.5,23.5C 100.227,26.8805 105.227,29.8805 110.5,32.5C 116.844,28.4832 123.178,24.4832 129.5,20.5 Z"/></g>
<g><path style="opacity:1" fill="#f6f6f6" d="M 36.5,27.5 C 36.5,32.1667 36.5,36.8333 36.5,41.5C 27.5,41.5 18.5,41.5 9.5,41.5C 10.8333,39.5 12.5,37.8333 14.5,36.5C 14.3691,37.3764 14.7025,38.0431 15.5,38.5C 17.3707,37.233 19.2041,37.233 21,38.5C 21.6667,37.8333 22.3333,37.1667 23,36.5C 25.8003,37.1253 28.6336,37.792 31.5,38.5C 30.624,39.2508 29.624,39.7508 28.5,40C 30.8098,40.4966 33.1432,40.6633 35.5,40.5C 35.1818,35.9677 35.5151,31.6344 36.5,27.5 Z"/></g>
<g><path style="opacity:1" fill="#edeef0" d="M 64.5,40.5 C 65.1386,41.0968 65.472,41.9302 65.5,43C 65.6134,44.6991 64.9468,45.8658 63.5,46.5C 63.1034,45.475 62.4368,45.3083 61.5,46C 59.1311,49.2258 56.1311,51.3924 52.5,52.5C 52.6495,53.552 52.4828,54.552 52,55.5C 47.9741,59.1949 43.9741,62.8616 40,66.5C 39.6172,59.0552 39.4505,51.3885 39.5,43.5C 45.1764,43.6661 50.8431,43.4994 56.5,43C 50.3193,42.8276 44.3193,42.3276 38.5,41.5C 46.8886,41.1968 55.222,41.5301 63.5,42.5C 64.2975,42.0431 64.6309,41.3764 64.5,40.5 Z"/></g>
<g><path style="opacity:1" fill="#d9dbde" d="M 38.5,70.5 C 37.1266,70.6567 35.7932,70.49 34.5,70C 26.019,61.6852 17.6856,53.1852 9.5,44.5C 13.4451,43.1745 17.7784,42.5079 22.5,42.5C 26.8333,42.6667 31.1667,42.8333 35.5,43C 36.0253,43.6924 36.6919,44.1924 37.5,44.5C 38.498,53.1411 38.8314,61.8078 38.5,70.5 Z"/></g>
<g><path style="opacity:0.999" fill="#edeef0" d="M 133.5,63.5 C 136.527,65.8605 139.194,68.5271 141.5,71.5C 140.817,73.1765 139.483,73.8432 137.5,73.5C 119.31,73.1625 101.31,72.1625 83.5,70.5C 84.6597,67.9666 85.993,65.6332 87.5,63.5C 88.7211,64.4646 90.0544,64.298 91.5,63C 97.0164,58.0803 103.016,53.9136 109.5,50.5C 117.295,54.9003 124.962,59.5669 132.5,64.5C 133.107,64.3764 133.44,64.0431 133.5,63.5 Z"/></g>
<g><path style="opacity:0.85" fill="#fdfdfe" d="M 9.5,59.5 C 16.0001,58.4987 18.5001,61.1653 17,67.5C 14.6,71.6873 11.6,72.354 8,69.5C 7.03704,65.8513 7.53704,62.518 9.5,59.5 Z"/></g>
<g><path style="opacity:0.897" fill="#fdfdfd" d="M 62.5,59.5 C 70.9909,58.9903 73.3242,62.4903 69.5,70C 64.3159,72.5742 60.9826,71.0742 59.5,65.5C 59.9837,63.1992 60.9837,61.1992 62.5,59.5 Z"/></g>
<g><path style="opacity:0.645" fill="#fdfdfd" d="M 151.5,61.5 C 151.5,64.8333 151.5,68.1667 151.5,71.5C 148.833,68.1667 148.833,64.8333 151.5,61.5 Z"/></g>
<g><path style="opacity:0.789" fill="#e7e8ea" d="M 38.5,41.5 C 44.3193,42.3276 50.3193,42.8276 56.5,43C 50.8431,43.4994 45.1764,43.6661 39.5,43.5C 39.4505,51.3885 39.6172,59.0552 40,66.5C 43.9741,62.8616 47.9741,59.1949 52,55.5C 52.4828,54.552 52.6495,53.552 52.5,52.5C 56.1311,51.3924 59.1311,49.2258 61.5,46C 62.4368,45.3083 63.1034,45.475 63.5,46.5C 55.3656,53.8019 47.6989,61.6352 40.5,70C 39.9056,70.4643 39.2389,70.631 38.5,70.5C 38.8314,61.8078 38.498,53.1411 37.5,44.5C 36.6919,44.1924 36.0253,43.6924 35.5,43C 31.1667,42.8333 26.8333,42.6667 22.5,42.5C 17.7784,42.5079 13.4451,43.1745 9.5,44.5C 8.16667,43.5 8.16667,42.5 9.5,41.5C 18.5,41.5 27.5,41.5 36.5,41.5C 36.5,36.8333 36.5,32.1667 36.5,27.5C 37.2157,31.5888 37.8823,36.2555 38.5,41.5 Z"/></g>
<g><path style="opacity:0.703" fill="#ebebec" d="M 79.5,10.5 C 80.1667,11.1667 80.8333,11.8333 81.5,12.5C 80.1681,22.1436 79.5014,32.1436 79.5,42.5C 79.6667,52.5 79.8333,62.5 80,72.5C 81.1127,71.695 82.2794,71.0283 83.5,70.5C 101.31,72.1625 119.31,73.1625 137.5,73.5C 118.031,74.4837 98.6976,74.4837 79.5,73.5C 78.6809,68.1844 78.0142,62.8511 77.5,57.5C 78.3644,48.6866 78.3644,39.8533 77.5,31C 77.4291,23.9474 78.0958,17.1141 79.5,10.5 Z"/></g>
<g><path style="opacity:0.722" fill="#f0f0f0" d="M 69.5,83.5 C 50.8333,83.5 32.1667,83.5 13.5,83.5C 13.5,84.5 13.5,85.5 13.5,86.5C 12.3951,85.3995 11.0618,84.7329 9.5,84.5C 9.5,83.8333 9.16667,83.5 8.5,83.5C 23.6707,82.7345 39.0041,82.0678 54.5,81.5C 59.7009,81.7413 64.7009,82.408 69.5,83.5 Z"/></g>
<g><path style="opacity:1" fill="#f9f9fa" d="M 69.5,83.5 C 70.3382,83.8417 70.6716,84.5084 70.5,85.5C 68.1475,86.3403 66.1475,87.6736 64.5,89.5C 64.5654,89.0618 64.3988,88.7284 64,88.5C 60.3854,90.7195 56.8854,93.0528 53.5,95.5C 48.3038,97.8523 43.4704,100.852 39,104.5C 35.0506,102.44 31.5506,99.7732 28.5,96.5C 26.9246,95.5435 25.258,94.8769 23.5,94.5C 21.0722,92.9565 18.4056,91.9565 15.5,91.5C 14.8333,89.8333 14.1667,88.1667 13.5,86.5C 13.5,85.5 13.5,84.5 13.5,83.5C 32.1667,83.5 50.8333,83.5 69.5,83.5 Z"/></g>
<g><path style="opacity:0.892" fill="#fdfdfd" d="M 135.5,83.5 C 141.134,84.6266 143.301,87.9599 142,93.5C 136.324,98.1248 132.491,96.9581 130.5,90C 131.116,86.896 132.782,84.7293 135.5,83.5 Z"/></g>
<g><path style="opacity:0.881" fill="#fdfdfd" d="M 80.5,84.5 C 88.3888,84.3492 90.7221,87.8492 87.5,95C 82.1489,98.0277 78.8155,96.6944 77.5,91C 77.8402,88.4887 78.8402,86.322 80.5,84.5 Z"/></g>
<g><path style="opacity:0.931" fill="#fdfdfd" d="M 70.5,85.5 C 70.6666,104.17 70.4999,122.836 70,141.5C 69.7216,142.416 69.2216,143.082 68.5,143.5C 67.2437,139.313 65.2437,135.646 62.5,132.5C 58.0866,126.683 54.4199,120.35 51.5,113.5C 56.2108,105.697 60.5442,97.6975 64.5,89.5C 66.1475,87.6736 68.1475,86.3403 70.5,85.5 Z"/></g>
<g><path style="opacity:0.993" fill="#fbfbfb" d="M 135.5,111.5 C 133.257,112.812 130.59,113.478 127.5,113.5C 121.504,113.034 115.504,112.7 109.5,112.5C 109.953,106.317 109.453,100.317 108,94.5C 107.81,100.416 107.31,106.249 106.5,112C 98.5,112.667 90.5,112.667 82.5,112C 83.8228,111.184 84.4894,110.017 84.5,108.5C 91.8746,100.124 99.8746,92.4575 108.5,85.5C 110.944,86.7669 113.277,88.2669 115.5,90C 122.005,97.3374 128.672,104.504 135.5,111.5 Z"/></g>
<g><path style="opacity:0.998" fill="#d9dade" d="M 9.5,84.5 C 11.0618,84.7329 12.3951,85.3995 13.5,86.5C 14.1667,88.1667 14.8333,89.8333 15.5,91.5C 16.0447,93.5932 16.878,95.5932 18,97.5C 20.4295,99.4221 22.2628,101.755 23.5,104.5C 25.0446,107.556 26.378,110.722 27.5,114C 27.0457,115.939 26.379,117.772 25.5,119.5C 22.8827,124.114 19.8827,128.447 16.5,132.5C 15.2237,134.562 14.3903,136.896 14,139.5C 12.0283,140.305 10.5283,141.639 9.5,143.5C 8.17215,123.671 8.17215,104.004 9.5,84.5 Z"/></g>
<g><path style="opacity:0.681" fill="#ececed" d="M 23.5,94.5 C 25.258,94.8769 26.9246,95.5435 28.5,96.5C 31.5506,99.7732 35.0506,102.44 39,104.5C 43.4704,100.852 48.3038,97.8523 53.5,95.5C 49.3973,100.099 44.5639,103.766 39,106.5C 33.1318,103.326 27.9651,99.3264 23.5,94.5 Z"/></g>
<g><path style="opacity:0.416" fill="#e5e5e7" d="M 23.5,104.5 C 26.2603,106.939 28.2603,109.939 29.5,113.5C 29.1481,116.217 27.8147,118.217 25.5,119.5C 26.379,117.772 27.0457,115.939 27.5,114C 26.378,110.722 25.0446,107.556 23.5,104.5 Z"/></g>
<g><path style="opacity:1" fill="#ecedee" d="M 135.5,111.5 C 137.859,112.389 138.025,113.722 136,115.5C 127.911,123.757 119.745,131.757 111.5,139.5C 110.778,139.082 110.278,138.416 110,137.5C 109.667,130.5 109.333,123.5 109,116.5C 108.167,115.667 107.333,114.833 106.5,114C 98.1733,113.5 89.84,113.334 81.5,113.5C 81.5,114.5 81.5,115.5 81.5,116.5C 80.6091,115.739 79.9424,114.739 79.5,113.5C 80.8545,111.479 82.5212,109.812 84.5,108.5C 84.4894,110.017 83.8228,111.184 82.5,112C 90.5,112.667 98.5,112.667 106.5,112C 107.31,106.249 107.81,100.416 108,94.5C 109.453,100.317 109.953,106.317 109.5,112.5C 115.504,112.7 121.504,113.034 127.5,113.5C 130.59,113.478 133.257,112.812 135.5,111.5 Z"/></g>
<g><path style="opacity:1" fill="#dadade" d="M 111.5,139.5 C 110.341,141.377 108.674,141.877 106.5,141C 103.334,139 100.668,136.5 98.5,133.5C 94.806,127.806 90.1393,123.139 84.5,119.5C 83.8333,118.167 82.8333,117.167 81.5,116.5C 81.5,115.5 81.5,114.5 81.5,113.5C 89.84,113.334 98.1733,113.5 106.5,114C 107.333,114.833 108.167,115.667 109,116.5C 109.333,123.5 109.667,130.5 110,137.5C 110.278,138.416 110.778,139.082 111.5,139.5 Z"/></g>
<g><path style="opacity:0.733" fill="#e4e5e7" d="M 84.5,119.5 C 90.1393,123.139 94.806,127.806 98.5,133.5C 93.5,129.167 88.8333,124.5 84.5,119.5 Z"/></g>
<g><path style="opacity:0.77" fill="#e9e9eb" d="M 8.5,83.5 C 9.16667,83.5 9.5,83.8333 9.5,84.5C 8.17215,104.004 8.17215,123.671 9.5,143.5C 10.5283,141.639 12.0283,140.305 14,139.5C 14.3903,136.896 15.2237,134.562 16.5,132.5C 16.3691,133.376 16.7025,134.043 17.5,134.5C 19.1667,133.667 20.8333,132.833 22.5,132C 27.7344,127.762 33.2344,123.929 39,120.5C 44.8863,123.219 49.7196,127.219 53.5,132.5C 49.2893,129.319 44.956,126.319 40.5,123.5C 39.5,124.833 38.5,124.833 37.5,123.5C 30.6761,128.745 23.6761,133.745 16.5,138.5C 15.5,139.833 14.5,141.167 13.5,142.5C 30.8671,143.193 48.2004,143.86 65.5,144.5C 46.3292,145.828 26.9959,145.828 7.5,144.5C 6.69429,127.951 6.36095,111.284 6.5,94.5C 6.4537,90.5719 7.12036,86.9052 8.5,83.5 Z"/></g>
<g><path style="opacity:1" fill="#edeef0" d="M 53.5,132.5 C 56.122,134.644 59.122,135.977 62.5,136.5C 62.5,135.167 62.5,133.833 62.5,132.5C 65.2437,135.646 67.2437,139.313 68.5,143.5C 67.791,144.404 66.791,144.737 65.5,144.5C 48.2004,143.86 30.8671,143.193 13.5,142.5C 14.5,141.167 15.5,139.833 16.5,138.5C 23.6761,133.745 30.6761,128.745 37.5,123.5C 38.5,124.833 39.5,124.833 40.5,123.5C 44.956,126.319 49.2893,129.319 53.5,132.5 Z"/></g>
<g><path style="opacity:0.913" fill="#fcfcfd" d="M 80.5,130.5 C 87.8493,129.188 90.6826,132.188 89,139.5C 83.595,145.369 79.7617,144.536 77.5,137C 77.6516,134.351 78.6516,132.184 80.5,130.5 Z"/></g>
<g><path style="opacity:0.855" fill="#fdfdfd" d="M 133.5,130.5 C 144.258,129.979 146.258,133.812 139.5,142C 134.266,143.385 131.599,141.385 131.5,136C 131.395,133.822 132.061,131.988 133.5,130.5 Z"/></g>
</svg>
